{"accessors":[{"bufferView":0,"componentType":5126,"count":4,"max":[0.500220000743866,-5.595605850219727,-1.555605053901672],"min":[-0.499779999256134,-6.595605850219727,-1.555605053901672],"type":"VEC3"},{"bufferView":1,"componentType":5126,"count":4,"type":"VEC3"},{"bufferView":2,"componentType":5126,"count":4,"type":"VEC2"},{"bufferView":3,"componentType":5123,"count":6,"type":"SCALAR"},{"bufferView":4,"componentType":5126,"count":10,"max":[0.500220000743866,-5.595605850219727,-0.5556049942970276],"min":[-0.499779999256134,-6.595605850219727,-1.555605053901672],"type":"VEC3"},{"bufferView":5,"componentType":5126,"count":10,"type":"VEC3"},{"bufferView":6,"componentType":5126,"count":10,"type":"VEC2"},{"bufferView":7,"componentType":5123,"count":12,"type":"SCALAR"},{"bufferView":8,"componentType":5126,"count":315,"max":[0.500220000743866,-5.595605850219727,-0.5556049942970276],"min":[-0.499779999256134,-6.595605850219727,-1.054291963577271],"type":"VEC3"},{"bufferView":9,"componentType":5126,"count":315,"type":"VEC3"},{"bufferView":10,"componentType":5126,"count":315,"type":"VEC2"},{"bufferView":11,"componentType":5123,"count":1449,"type":"SCALAR"}],"asset":{"extras":{"GOOGLE_processor_version":313310320},"generator":"Khronos glTF Blender I/O v1.1.46","version":"2.0"},"bufferViews":[{"buffer":0,"byteLength":48,"byteOffset":0},{"buffer":0,"byteLength":48,"byteOffset":48},{"buffer":0,"byteLength":32,"byteOffset":96},{"buffer":0,"byteLength":12,"byteOffset":128},{"buffer":0,"byteLength":120,"byteOffset":140},{"buffer":0,"byteLength":120,"byteOffset":260},{"buffer":0,"byteLength":80,"byteOffset":380},{"buffer":0,"byteLength":24,"byteOffset":460},{"buffer":0,"byteLength":3780,"byteOffset":484},{"buffer":0,"byteLength":3780,"byteOffset":4264},{"buffer":0,"byteLength":2520,"byteOffset":8044},{"buffer":0,"byteLength":2898,"byteOffset":10564}],"buffers":[{"byteLength":13464,"uri":"data:application/octet-stream;base64,"}],"cameras":[{"perspective":{"yfov":0.7853981633974483,"znear":0.1000000014901161},"type":"perspective"}],"extensions":{"GOOGLE_lights_image_based":{"lights":[{"intensity":1,"pmremTexture":{"index":0},"rotation":0}]},"KHR_lights_punctual":{"lights":[{"color":[1,0.9333333333333333,0.8666666666666667],"intensity":0.4749999940395355,"name":"headLight","type":"directional"},{"color":[1,0.9333333333333333,0.8666666666666667],"intensity":0.6174999696016314,"name":"keyLight","type":"directional"}]}},"extensionsUsed":["GOOGLE_backgrounds","GOOGLE_lights_image_based","GOOGLE_camera_settings","KHR_lights_punctual"],"extras":{"GOOGLE_initial_camera_motion":{"motionPath":"FULL_ROTATION"},"GOOGLE_lighting_rig":{"disableShadows":false}},"images":[{"uri":"data:application/octet-stream;base64,"}],"materials":[{"alphaCutoff":0.5,"alphaMode":"OPAQUE","doubleSided":true,"emissiveFactor":[0,0,0],"name":"lambert2SG","pbrMetallicRoughness":{"baseColorFactor":[0,0.8588235378265381,0.6274510025978088,1],"metallicFactor":0,"roughnessFactor":0.9699476361274719}},{"alphaCutoff":0.5,"alphaMode":"OPAQUE","doubleSided":true,"emissiveFactor":[0,0,0],"name":"surfaceShader1SG","pbrMetallicRoughness":{"baseColorFactor":[0,0,0,1],"metallicFactor":0,"roughnessFactor":0.9699476361274719}},{"alphaCutoff":0.5,"alphaMode":"OPAQUE","doubleSided":true,"emissiveFactor":[0,0,0],"name":"initialShadingGroup","pbrMetallicRoughness":{"baseColorFactor":[1,0.9686274528503418,0,1],"metallicFactor":0,"roughnessFactor":0.9699476361274719}}],"meshes":[{"name":"buffer-0-mesh-0","primitives":[{"attributes":{"NORMAL":1,"POSITION":0,"TEXCOORD_0":2},"indices":3,"material":0},{"attributes":{"NORMAL":5,"POSITION":4,"TEXCOORD_0":6},"indices":7,"material":1},{"attributes":{"NORMAL":9,"POSITION":8,"TEXCOORD_0":10},"indices":11,"material":2}]}],"nodes":[{"mesh":0,"name":"node-0"},{"children":[0],"name":"Node.002","translation":[0.002279999433085322,6.093105792999268,1.053104996681213]},{"children":[1],"name":"Node.001"},{"children":[2],"name":"Node","rotation":[0.7071068286895752,0,0,0.7071067094802856]},{"name":"headLight","translation":[-1.089522838592529,0.5447614192962646,-0.5447614192962646]},{"children":[4],"name":"Camera.001","rotation":[0.1798458993434906,-0.8037256002426147,0.4810197949409485,0.3005005121231079],"translation":[-3.170744895935059,3.642684698104858,-9.738008499145508]},{"name":"keyLight","rotation":[-0.7113732099533081,-0.1102991253137589,0.1598774194717407,0.6754416823387146],"scale":[0,3.766572476138208e-8,1.100418567657471],"translation":[-1.077707171440125,3.080784797668457,-7.197553157806396]},{"children":[8]},{"children":[9],"extras":{"isTransformNode":1},"translation":[-2.223860605214678e-10,2.726913191824012e-8,-5.639964675407255e-8]},{"children":[3,5,6],"translation":[2.223860605214678e-10,-2.726913191824012e-8,5.639964675407255e-8]},{"camera":0,"children":[11],"rotation":[-0.2281277867273238,0.3317883439215591,0.08303172135435202,0.911581011764514],"translation":[1.508273841215494,1.252891540590886,1.797490786887131]},{"extensions":{"KHR_lights_punctual":{"light":0}},"extras":{"isHeadLight":1},"name":"headLightNode","translation":[-1.090335482391947,0.5451677411959736,0.5451677411959736]},{"extensions":{"KHR_lights_punctual":{"light":1}},"extras":{"isKeyLight":1},"name":"keyLightNode","rotation":[-0.7505326882858236,-0.3752663441429118,0,0.5439447166468927],"scale":[0,0,1.101238837215867],"translation":[-1.076384585283559,2.030387684780486,-1.108297819697561]}],"scene":0,"scenes":[{"extensions":{"GOOGLE_backgrounds":{"color":[0.1411764705882353,0.3372549019607843,0.788235294117647]},"GOOGLE_camera_settings":{"mode":"movableOrbit","pivot":[-2.223854433935912e-10,2.72691311753448e-8,-5.639964806292141e-8]},"GOOGLE_lights_image_based":{"light":0}},"extras":{"GOOGLE_camera_index":{"cameraIndex":0,"nodeIndex":10},"GOOGLE_geometry_data":{"stats":{"centroid":[0.02485425193230749,-0.1720899896512475,-0.007058982481694813],"radius":1.090335482391947,"stdev":0.5500650651327239},"visualCenterPoint":[-2.223860605214678e-10,2.726913191824012e-8,-5.639964675407255e-8]}},"name":"Scene","nodes":[7,10,12]}]}